# xmcd
#
# Track frame offsets: 
#        150
#        16027
#        35174
#        56656
#        76808
#        84861
#        104960
#        121693
#        140499
#        159552
#
# Disc length: 2243 seconds
#
# Revision: 5
# Processed by: cddbd v1.5.2PL0 Copyright (c) Steve Scherf et al.
# Submitted via: ExactAudioCopy v0.95b4
#
DISCID=7808c10a
DTITLE=Lee Ritenour - "Rit"
DYEAR=2004
DGENRE=Jazz Fusion
TTITLE0=Mr Briefcase
TTITLE1=Tell Me Pretty Lies
TTITLE2=No Sympathy
TTITLE3=Is It You?
TTITLE4=Dreamwalk
TTITLE5=Countdown (Captain Fingers)
TTITLE6=Good Question
TTITLE7=(You caught me) Smilin'
TTITLE8=On The Slow Glide
TTITLE9=No Sympathy
EXTD=YEAR: 1981
EXTT0=
EXTT1=
EXTT2=
EXTT3=
EXTT4=
EXTT5=
EXTT6=
EXTT7=
EXTT8=
EXTT9=
PLAYORDER=
